<mxfile host="app.diagrams.net" agent="Mozilla/5.0 (Windows NT 10.0; Win64; x64) AppleWebKit/537.36 (KHTML, like Gecko) Chrome/135.0.0.0 Safari/537.36" version="26.2.14">
  <diagram name="第 1 页" id="HzSy0HpkaCUEbZPKKQVm">
    <mxGraphModel dx="872" dy="621" grid="1" gridSize="10" guides="1" tooltips="1" connect="1" arrows="1" fold="1" page="1" pageScale="1" pageWidth="827" pageHeight="1169" math="0" shadow="0">
      <root>
        <mxCell id="0" />
        <mxCell id="1" parent="0" />
        <mxCell id="2k98hI7KIQM1wUdcPeF2-11" style="rounded=0;orthogonalLoop=1;jettySize=auto;html=1;exitX=1;exitY=0;exitDx=0;exitDy=0;entryX=0;entryY=0.5;entryDx=0;entryDy=0;endArrow=none;startFill=0;" edge="1" parent="1" source="2k98hI7KIQM1wUdcPeF2-1" target="2k98hI7KIQM1wUdcPeF2-8">
          <mxGeometry relative="1" as="geometry" />
        </mxCell>
        <mxCell id="2k98hI7KIQM1wUdcPeF2-1" value="系统日志" style="rounded=0;whiteSpace=wrap;html=1;" vertex="1" parent="1">
          <mxGeometry x="240" y="170" width="120" height="60" as="geometry" />
        </mxCell>
        <mxCell id="2k98hI7KIQM1wUdcPeF2-2" value="操作标志" style="ellipse;whiteSpace=wrap;html=1;" vertex="1" parent="1">
          <mxGeometry x="170" y="300" width="100" height="60" as="geometry" />
        </mxCell>
        <mxCell id="2k98hI7KIQM1wUdcPeF2-4" value="修改内容" style="ellipse;whiteSpace=wrap;html=1;" vertex="1" parent="1">
          <mxGeometry x="414" y="310" width="100" height="60" as="geometry" />
        </mxCell>
        <mxCell id="2k98hI7KIQM1wUdcPeF2-10" style="rounded=0;orthogonalLoop=1;jettySize=auto;html=1;exitX=0.5;exitY=1;exitDx=0;exitDy=0;endArrow=none;startFill=0;" edge="1" parent="1" source="2k98hI7KIQM1wUdcPeF2-6">
          <mxGeometry relative="1" as="geometry">
            <mxPoint x="310" y="160" as="targetPoint" />
          </mxGeometry>
        </mxCell>
        <mxCell id="2k98hI7KIQM1wUdcPeF2-6" value="操作时间" style="ellipse;whiteSpace=wrap;html=1;" vertex="1" parent="1">
          <mxGeometry x="250" y="20" width="100" height="60" as="geometry" />
        </mxCell>
        <mxCell id="2k98hI7KIQM1wUdcPeF2-7" value="ID(PK)" style="ellipse;whiteSpace=wrap;html=1;" vertex="1" parent="1">
          <mxGeometry x="50" y="150" width="100" height="60" as="geometry" />
        </mxCell>
        <mxCell id="2k98hI7KIQM1wUdcPeF2-8" value="操作对象" style="ellipse;whiteSpace=wrap;html=1;" vertex="1" parent="1">
          <mxGeometry x="450" y="100" width="100" height="60" as="geometry" />
        </mxCell>
        <mxCell id="2k98hI7KIQM1wUdcPeF2-9" style="rounded=0;orthogonalLoop=1;jettySize=auto;html=1;exitX=0;exitY=0.5;exitDx=0;exitDy=0;entryX=0.97;entryY=0.631;entryDx=0;entryDy=0;entryPerimeter=0;endArrow=none;startFill=0;" edge="1" parent="1" source="2k98hI7KIQM1wUdcPeF2-1" target="2k98hI7KIQM1wUdcPeF2-7">
          <mxGeometry relative="1" as="geometry" />
        </mxCell>
        <mxCell id="2k98hI7KIQM1wUdcPeF2-12" style="rounded=0;orthogonalLoop=1;jettySize=auto;html=1;exitX=1;exitY=1;exitDx=0;exitDy=0;entryX=0.267;entryY=0.121;entryDx=0;entryDy=0;entryPerimeter=0;endArrow=none;startFill=0;" edge="1" parent="1" source="2k98hI7KIQM1wUdcPeF2-1" target="2k98hI7KIQM1wUdcPeF2-4">
          <mxGeometry relative="1" as="geometry" />
        </mxCell>
        <mxCell id="2k98hI7KIQM1wUdcPeF2-13" style="rounded=0;orthogonalLoop=1;jettySize=auto;html=1;exitX=0.386;exitY=1.038;exitDx=0;exitDy=0;entryX=0.747;entryY=0.136;entryDx=0;entryDy=0;entryPerimeter=0;endArrow=none;startFill=0;exitPerimeter=0;" edge="1" parent="1" source="2k98hI7KIQM1wUdcPeF2-1" target="2k98hI7KIQM1wUdcPeF2-2">
          <mxGeometry relative="1" as="geometry" />
        </mxCell>
      </root>
    </mxGraphModel>
  </diagram>
</mxfile>
